<?xml version="1.0" encoding="UTF-8"?>
<svg id="Layer_2" data-name="Layer 2" xmlns="http://www.w3.org/2000/svg" viewBox="0 0 32.75 50.76">
  <defs>
    <style>
      .cls-1 {
        fill: #8f66ac;/
      }

      .cls-2 {
        fill: #fff;
      }
    </style>
  </defs>
  <g id="Layer_1-2" data-name="Layer 1">
    <g>
      <path class="cls-1" d="M10.86,31.47c-.98,0-1.78.79-1.78,1.77,0,.47.19.92.52,1.26s.78.52,1.26.52c.47,0,.92-.19,1.26-.52.33-.33.52-.78.52-1.26,0-.98-.79-1.77-1.78-1.77Z"/>
      <path class="cls-1" d="M16.79,31.47c-.98,0-1.78.79-1.78,1.77,0,.47.19.92.52,1.26.33.33.78.52,1.26.52.47,0,.92-.19,1.26-.52.33-.33.52-.78.52-1.26,0-.98-.79-1.77-1.78-1.77Z"/>
      <path class="cls-1" d="M22.73,31.47c-.98,0-1.78.79-1.78,1.77,0,.47.19.92.52,1.26s.78.52,1.26.52c.47,0,.92-.19,1.26-.52.33-.33.52-.78.52-1.26,0-.98-.79-1.77-1.78-1.77Z"/>
    </g>
    <path class="cls-2" d="M32.74,22.6v-1.36h-4.9s-23.53,0-23.53,0c-2.38,0-4.32,1.93-4.32,4.32v25.21l11.46-4.86h16.97c2.38,0,4.32-1.92,4.32-4.31v-18.99h0ZM27.85,38.55c0,1.38-1.15,2.5-2.56,2.5-.21,0-15.3,0-15.3,0l-5.08,2.01v-14.48c0-1.38,1.15-2.5,2.56-2.5h20.38v12.46Z"/>
    <path class="cls-1" d="M27.85,19.47h4.89v-3.12c0-4.37-1.71-8.48-4.79-11.56C24.86,1.7,20.75,0,16.38,0S7.91,1.7,4.82,4.79C1.73,7.88.03,11.99.03,16.35v5.55c.92-1.89,2.54-2.47,4.68-2.43h.21v-3.12h0c0-6.32,5.14-11.46,11.46-11.46s11.46,5.14,11.46,11.46v3.12Z"/>
  </g>
</svg>