<?xml version="1.0" encoding="UTF-8"?>
<svg id="Layer_2" data-name="Layer 2" xmlns="http://www.w3.org/2000/svg" viewBox="0 0 186.66 53.74">
  <defs>
    <style>
      .cls-1 {
        fill: #8f66ac;
      }

      .cls-2 {
        fill: #fff;
      }
    </style>
  </defs>
  <g id="Layer_1-2" data-name="Layer 1">
    <g>
      <path class="cls-2" d="M41.75,32.16c0-8.44,5.06-14.13,12.87-14.13,5.81,0,10.17,2.79,11.74,8.59l-5.26,1.37c-1.1-3.73-3.41-5.42-6.48-5.42-4.55,0-7.5,3.57-7.5,9.58s2.94,9.58,7.5,9.58c3.14,0,5.53-1.73,6.67-5.42l5.26,1.37c-1.65,5.89-6,8.59-11.93,8.59-7.81,0-12.87-5.69-12.87-14.13Z"/>
      <path class="cls-2" d="M66.59,35.88c0-5.85,3.61-10.4,10.09-10.4s10.12,4.55,10.12,10.4-3.65,10.4-10.12,10.4-10.09-4.55-10.09-10.4ZM81.46,35.88c0-3.65-1.88-6-4.79-6s-4.79,2.35-4.79,6,1.88,6,4.79,6,4.79-2.36,4.79-6Z"/>
      <path class="cls-2" d="M100.77,25.52v5.22c-.63-.08-.94-.08-1.49-.08-3.1,0-6.12,1.73-6.12,7.1v8.12h-5.3v-9.34c0-3.57,0-7.1-.2-10.67h5.06l.51,4.08h.39c1.1-2.98,3.18-4.47,5.77-4.47.47,0,.82,0,1.37.04Z"/>
      <path class="cls-2" d="M102.72,53.74v-17.19c0-3.57,0-7.1-.2-10.67h5.06l.43,3.26h.31c1.37-2.32,3.49-3.65,6.36-3.65,4.98,0,8.12,4,8.12,10.4s-3.14,10.4-8.12,10.4c-2.87,0-4.98-1.33-6.36-3.65h-.31v11.11h-5.3ZM117.52,35.92c0-3.65-1.88-6.04-4.75-6.04s-4.75,2.39-4.75,6.04,1.84,5.96,4.75,5.96,4.75-2.32,4.75-5.96Z"/>
      <path class="cls-1" d="M129.76,45.89l-9.34-27.47h7.18l6.36,21.04h.35l6.36-21.04h7.03l-9.34,27.47h-8.59Z"/>
      <path class="cls-1" d="M145.92,35.88c0-5.89,3.57-10.4,10.48-10.4s10.44,4.51,10.44,10.4-3.57,10.4-10.44,10.4-10.48-4.51-10.48-10.4ZM160.21,35.88c0-3.1-1.49-5.02-3.81-5.02s-3.85,1.92-3.85,5.02,1.53,5.02,3.85,5.02,3.81-1.92,3.81-5.02Z"/>
      <path class="cls-1" d="M165.27,45.89l5.81-10.2-5.42-9.81h7.03l3.18,6.63h.35l3.1-6.63h6.95l-5.42,9.81,5.81,10.2h-7.1l-3.45-6.79h-.35l-3.49,6.79h-6.99Z"/>
    </g>
    <g>
      <path class="cls-1" d="M10.86,31.47c-.98,0-1.78.79-1.78,1.77,0,.47.19.92.52,1.26s.78.52,1.26.52c.47,0,.92-.19,1.26-.52.33-.33.52-.78.52-1.26,0-.98-.79-1.77-1.78-1.77Z"/>
      <path class="cls-1" d="M16.79,31.47c-.98,0-1.78.79-1.78,1.77,0,.47.19.92.52,1.26.33.33.78.52,1.26.52.47,0,.92-.19,1.26-.52.33-.33.52-.78.52-1.26,0-.98-.79-1.77-1.78-1.77Z"/>
      <path class="cls-1" d="M22.73,31.47c-.98,0-1.78.79-1.78,1.77,0,.47.19.92.52,1.26s.78.52,1.26.52c.47,0,.92-.19,1.26-.52.33-.33.52-.78.52-1.26,0-.98-.79-1.77-1.78-1.77Z"/>
    </g>
    <path class="cls-2" d="M32.74,22.6v-1.36h-4.9s-23.53,0-23.53,0c-2.38,0-4.32,1.93-4.32,4.32v25.21l11.46-4.86h16.97c2.38,0,4.32-1.92,4.32-4.31v-18.99h0ZM27.85,38.55c0,1.38-1.15,2.5-2.56,2.5-.21,0-15.3,0-15.3,0l-5.08,2.01v-14.48c0-1.38,1.15-2.5,2.56-2.5h20.38v12.46Z"/>
    <path class="cls-1" d="M27.85,19.47h4.89v-3.12c0-4.37-1.71-8.48-4.79-11.56C24.86,1.7,20.75,0,16.38,0S7.91,1.7,4.82,4.79C1.73,7.88.03,11.99.03,16.35v5.55c.92-1.89,2.54-2.47,4.68-2.43h.21v-3.12h0c0-6.32,5.14-11.46,11.46-11.46s11.46,5.14,11.46,11.46v3.12Z"/>
  </g>
</svg>